<?xml version="1.0" standalone="no"?><!DOCTYPE svg PUBLIC "-//W3C//DTD SVG 1.1//EN" "http://www.w3.org/Graphics/SVG/1.1/DTD/svg11.dtd"><svg t="1605838044021" class="icon" viewBox="0 0 1024 1024" version="1.1" xmlns="http://www.w3.org/2000/svg" p-id="2476" xmlns:xlink="http://www.w3.org/1999/xlink" width="48" height="48"><defs><style type="text/css"></style></defs><path d="M231.747368 622.484211L53.894737 495.831579l8.08421-61.978947 51.2-266.778948V75.452632h177.852632v91.621052L323.368421 431.157895l-2.694737 113.178947-88.926316-56.589474zM423.073684 487.747368v134.736843L323.368421 552.421053l5.389474-105.094737 45.810526-242.526316v-80.842105h150.905263v80.842105l35.031579 296.421053 8.084211 97.010526z" fill="#1296db" opacity=".4" p-id="2477"></path><path d="M980.884211 609.010526l-183.242106-134.736842c-5.389474-5.389474-13.473684-5.389474-18.863158-2.694737-5.389474 2.694737-10.778947 10.778947-10.778947 16.168421v97.010527l-153.6-113.178948c-5.389474-5.389474-13.473684-5.389474-18.863158-2.694736-5.389474 2.694737-10.778947 10.778947-10.778947 16.168421v64.673684l-5.389474-56.589474-35.031579-288.336842v-80.842105c0-10.778947-8.084211-18.863158-18.863158-18.863158h-150.905263c-10.778947 0-18.863158 8.084211-18.863158 18.863158v78.147368l-24.252631 137.431579-21.557895-172.463158V75.452632c0-10.778947-8.084211-18.863158-18.863158-18.863158H113.178947c-10.778947 0-18.863158 8.084211-18.863158 18.863158v91.621052L43.115789 431.157895l-8.08421 61.978947v409.6c0 35.031579 29.642105 64.673684 64.673684 64.673684h824.589474c35.031579 0 64.673684-29.642105 64.673684-64.673684V622.484211c0-5.389474-2.694737-10.778947-8.08421-13.473685zM393.431579 207.494737V142.821053h113.178947v61.978947l35.031579 296.421053 5.389474 56.589473-113.178947-83.536842c-5.389474-5.389474-13.473684-5.389474-18.863158-2.694737-5.389474 2.694737-10.778947 10.778947-10.778948 16.168421v97.010527l-61.978947-43.11579v-48.505263l5.389474-45.810526 45.810526-239.831579zM132.042105 172.463158V94.315789H269.473684v75.452632l32.336842 261.389474v83.536842L242.526316 474.273684c-5.389474-2.694737-13.473684-5.389474-18.863158 0-5.389474 2.694737-10.778947 10.778947-10.778947 16.168421v97.010527L75.452632 485.052632l5.389473-48.505264 51.2-264.08421z m819.2 730.273684c0 16.168421-13.473684 26.947368-26.947368 26.947369H99.705263c-16.168421 0-26.947368-13.473684-26.947368-26.947369V530.863158l148.210526 107.789474c5.389474 5.389474 13.473684 5.389474 18.863158 2.694736 5.389474-2.694737 10.778947-10.778947 10.778947-16.168421v-97.010526l161.684211 113.178947c5.389474 5.389474 13.473684 5.389474 18.863158 0 5.389474-2.694737 10.778947-10.778947 10.778947-16.168421v-97.010526l150.905263 110.484211c5.389474 5.389474 13.473684 5.389474 18.863158 2.694736 5.389474-2.694737 10.778947-10.778947 10.778948-16.168421v-97.010526l153.6 113.178947c5.389474 5.389474 13.473684 5.389474 18.863157 2.694737 5.389474-2.694737 10.778947-10.778947 10.778948-16.168421v-97.010526l145.515789 107.789474v264.08421z" fill="#1296db" p-id="2478"></path></svg>