<?xml version="1.0" encoding="iso-8859-1"?>
<!-- Generator: Adobe Illustrator 19.0.0, SVG Export Plug-In . SVG Version: 6.00 Build 0)  -->
<svg version="1.1" id="Capa_1" xmlns="http://www.w3.org/2000/svg" xmlns:xlink="http://www.w3.org/1999/xlink" x="0px" y="0px"
	 viewBox="0 0 512 512" style="enable-background:new 0 0 512 512;" xml:space="preserve">
<path style="fill:#FCBF29;" d="M512,310.271l-30-63.543L422.835,241H331l-31,30v129.375L331,421h136c24.853,0,45-20.147,45-45v-15
	l-30-15l30-15V310.271z"/>
<path style="fill:#3C3A41;" d="M437,151h-15l-30,30v60l30,30h0.835c6.943,0,13.916,1.641,20.127,4.746L512,310.271v-33.543V226
	C512,184.578,478.422,151,437,151z"/>
<polygon style="fill:#FE9923;" points="331,151 300,181 300,271 422,271 422,151 "/>
<path style="fill:#98D400;" d="M331,106v315H45c-24.901,0-45-20.101-45-45v-15l30-15L0,331v-99.3c0-5.7,1.199-11.4,3.3-16.5
	l50.101-126C60.3,72.1,76.8,61,95.4,61H285C309.901,61,331,81.099,331,106z"/>
<path style="fill:#66BD21;" d="M331,106v315H180V61h105C309.901,61,331,81.099,331,106z"/>
<path style="fill:#57555C;" d="M105,361c-24.901,0-45,20.099-45,45c0,24.899,20.099,45,45,45s45-20.101,45-45
	C150,381.099,129.901,361,105,361z"/>
<path style="fill:#CAE8F9;" d="M105,391c-8.401,0-15,6.599-15,15c0,8.399,6.599,15,15,15s15-6.601,15-15
	C120,397.599,113.401,391,105,391z"/>
<path style="fill:#57555C;" d="M195,361c-24.901,0-45,20.099-45,45c0,24.899,20.099,45,45,45s45-20.101,45-45
	C240,381.099,219.901,361,195,361z"/>
<path style="fill:#CAE8F9;" d="M195,391c-8.401,0-15,6.599-15,15c0,8.399,6.599,15,15,15s15-6.601,15-15
	C210,397.599,203.401,391,195,391z"/>
<path style="fill:#3C3A41;" d="M407,361c-24.901,0-45,20.099-45,45c0,24.899,20.099,45,45,45s45-20.101,45-45
	C452,381.099,431.901,361,407,361z"/>
<path style="fill:#B7E0F6;" d="M407,391c-8.401,0-15,6.599-15,15c0,8.399,6.599,15,15,15s15-6.601,15-15
	C422,397.599,415.401,391,407,391z"/>
<path style="fill:#5DAD1D;" d="M60,346c0-8.286-6.716-15-15-15H0v30h45C53.284,361,60,354.284,60,346z"/>
<path style="fill:#B7E0F6;" d="M285,252.455c0-21.327-10.082-33.317-15.703-46.421c-3.691-7.397-12.7-10.371-20.127-6.709
	c-7.412,3.706-10.415,12.715-6.709,20.127c6.75,14.982,12.539,20.861,12.539,33.003c0,11.153-5.825,20.568-14.22,26.669
	c3.959-6.004,3.387-14.05-2.054-19.111c-6.035-5.596-15.513-5.288-21.196,0.776l-27.891,30c-6.067,6.542-4.406,18.192,2.944,22.866
	l39.375,25.005c6.886,4.415,16.217,2.441,20.698-4.614c4.453-6.987,2.373-16.26-4.614-20.698l-3.102-1.97
	C268.363,302.009,285,279.185,285,252.455z"/>
<g>
	<path style="fill:#CAE8F9;" d="M150,286h-11.455C120.044,286,105,270.956,105,252.455c0-3.809,0.879-7.557,2.155-11.158
		l2.181,7.599c2.262,7.875,10.478,12.566,18.56,10.269c7.954-2.285,12.554-10.591,10.269-18.56
		c-1.342-4.652,4.861,16.852-13.129-45.494c-3.004-9.778-14.59-12.547-21.471-8.778L62.169,208.95
		c-7.266,3.984-9.946,13.096-5.977,20.361c3.955,7.28,13.081,9.946,20.361,5.977l1.351-0.738C76.183,240.388,75,246.374,75,252.455
		C75,287.494,103.506,316,138.545,316H150c8.291,0,15-6.709,15-15S158.291,286,150,286z"/>
	<path style="fill:#CAE8F9;" d="M261.899,127.899l-7.2,40.499c-1.5,7.8-8.699,13.2-16.199,12.301l-42.001-3.6
		c-8.099-0.601-14.399-7.8-13.5-16.201c0.601-8.099,7.8-14.399,16.201-13.499l6.299,0.3C199.2,140.499,189.901,136,180,136
		c-26.4,0-32.1,24.899-34.799,28.2c-3.9,7.5-12.902,10.499-20.101,6.899c-7.5-3.9-10.499-12.9-6.899-20.4
		c2.701-2.999,15-44.7,61.8-44.7c20.4,0,38.699,9.899,50.7,26.1l1.5-9.6c1.5-8.101,9.3-13.5,17.401-12.001
		C257.701,111.7,263.101,119.5,261.899,127.899z"/>
</g>
<path style="fill:#B7E0F6;" d="M205.499,147.7C199.2,140.499,189.901,136,180,136v-30c20.4,0,38.699,9.899,50.7,26.1l1.5-9.6
	c1.5-8.101,9.3-13.5,17.401-12.001c8.101,1.201,13.5,9.001,12.299,17.401l-7.2,40.499c-1.5,7.8-8.699,13.2-16.199,12.301
	l-42.001-3.6c-8.099-0.601-14.399-7.8-13.5-16.201c0.601-8.099,7.8-14.399,16.201-13.499L205.499,147.7z"/>
<path style="fill:#E5741A;" d="M467,331c-8.284,0-15,6.714-15,15c0,8.284,6.716,15,15,15h45v-30H467z"/>
<g>
</g>
<g>
</g>
<g>
</g>
<g>
</g>
<g>
</g>
<g>
</g>
<g>
</g>
<g>
</g>
<g>
</g>
<g>
</g>
<g>
</g>
<g>
</g>
<g>
</g>
<g>
</g>
<g>
</g>
</svg>
